<?xml version="1.0" encoding="utf-8"?>
<!-- Generator: Adobe Illustrator 19.2.1, SVG Export Plug-In . SVG Version: 6.00 Build 0)  -->
<svg version="1.1" id="Layer_1" xmlns="http://www.w3.org/2000/svg" xmlns:xlink="http://www.w3.org/1999/xlink" x="0px" y="0px"
	 viewBox="0 0 87.4 103" enable-background="new 0 0 87.4 103" xml:space="preserve">
<g>
	
		<image overflow="visible" opacity="0.5" width="102" height="100" xlink:href="6F293C62.png"  transform="matrix(1 0 0 1 -7.2728 1.6667)">
	</image>
	<g>
		<g>
			<path fill="#FFFFFF" d="M63.9,41.7h-8.5v9.8h-9.8V60h9.8v9.8h8.5V60h9.8v-8.5h-9.8V41.7z M63.9,41.7"/>
			<path fill="#FFFFFF" d="M41.4,47.2h9.8v-9.8h17v9.8h4.9c1.8-2.8,2.8-6,2.8-9.6c0-9.8-7.9-17.8-17.8-17.8c-6,0-11.2,2.9-14.5,7.4
				c-3.2-4.5-8.5-7.4-14.5-7.4c-9.8,0-17.8,8-17.8,17.8c0,4.3,1.5,8.2,4,11.2l28.2,34.1l7.5-9.1v-9.7h-9.8V47.2z M41.4,47.2"/>
		</g>
	</g>
</g>
</svg>
