<?xml version="1.0" encoding="utf-8"?>
<!-- Generator: Adobe Illustrator 19.2.1, SVG Export Plug-In . SVG Version: 6.00 Build 0)  -->
<svg version="1.1" id="Layer_1" xmlns="http://www.w3.org/2000/svg" xmlns:xlink="http://www.w3.org/1999/xlink" x="0px" y="0px"
	 viewBox="0 0 98.5 98.1" enable-background="new 0 0 98.5 98.1" xml:space="preserve">
<g>
	
		<image overflow="visible" opacity="0.5" width="108" height="107" xlink:href="B7EE7F81.png"  transform="matrix(1 0 0 1 -4.875 -4.625)">
	</image>
	<g>
		<g>
			<path fill="#FFFFFF" d="M70.5,19l9.2,9.3l-3,3l-4.3-4.4l-1.8,1.8l4.4,4.4L72.9,35l-2.8-2.9l-1.8,1.8l2.8,2.9l-2.7,2.6l-4.4-4.4
				l-1.8,1.8l4.4,4.4L64.7,43l-2.8-2.9l-1.8,1.8l5.3,5.3l19.2-18.8l-14-14.3l-19.4,19l2.5,2.5L70.5,19z M70.5,19"/>
			<path fill="#FFFFFF" d="M43.3,57.5l3.3,3.4l-2.5,2.4l-4.8-4.9l-1.8,1.8l4.8,4.9l-1.9,1.9l-3.3-3.3l-1.8,1.8l3.3,3.3l-2.7,2.6
				l-4.8-4.9l-1.8,1.8l4.8,4.9L32.2,75l-3.3-3.4l-1.8,1.8l3.3,3.3L28,79.1l-9.2-9.3l20.4-20l-2.5-2.5L13.9,69.7L28,84l22.9-22.4
				l-5.8-5.9L43.3,57.5z M43.3,57.5"/>
			<path fill="#FFFFFF" d="M42.4,27.7L42.4,27.7L33,18.3L21.9,29.3l9.4,9.4l0,0l29.2,29.2l17.9,7.9l-6.7-18.7L42.4,27.7z M29.5,32.8
				l-3.5-3.5l6.9-6.9l3.5,3.5L29.5,32.8z M71.5,71.2l-10.1-4.4l-1.3-1.3l5.9,0.4l-1-4.1l4.4,0.8l0-5.6l1,1l3.8,10.7L71.5,71.2z
				 M71.5,71.2"/>
		</g>
	</g>
</g>
</svg>
