<?xml version="1.0" encoding="utf-8"?>
<!-- Generator: Adobe Illustrator 19.2.1, SVG Export Plug-In . SVG Version: 6.00 Build 0)  -->
<svg version="1.1" id="Layer_1" xmlns="http://www.w3.org/2000/svg" xmlns:xlink="http://www.w3.org/1999/xlink" x="0px" y="0px"
	 viewBox="0 0 87.4 103" enable-background="new 0 0 87.4 103" xml:space="preserve">
<g>
	
		<image overflow="visible" opacity="0.5" width="90" height="105" xlink:href="A0EE7D8F.png"  transform="matrix(1 0 0 1 -1.2728 -1.3333)">
	</image>
	<g>
		<g>
			<path fill="#FFFFFF" d="M58.9,59.8c5.4-4.5,8.7-11.2,8.7-18.4c0-13.2-10.7-23.9-23.9-23.9c-13.2,0-23.9,10.7-23.9,23.9
				c0,7.2,3.3,13.9,8.7,18.4L17.2,79.3l8.7-2.8l1.9,8.9L41,62.6c0.9,0.1,1.8,0.2,2.7,0.2c0.9,0,1.8-0.1,2.7-0.2l13.2,22.8l1.9-8.9
				l8.7,2.8L58.9,59.8z M52.8,53l-9.1-4.8L34.6,53l1.7-10.1L29,35.7l10.1-1.5l4.5-9.2l4.5,9.2l10.2,1.5L51,42.8L52.8,53z M52.8,53"
				/>
		</g>
	</g>
</g>
</svg>
