<?xml version="1.0" encoding="utf-8"?>
<!-- Generator: Adobe Illustrator 19.2.1, SVG Export Plug-In . SVG Version: 6.00 Build 0)  -->
<svg version="1.1" id="Layer_1" xmlns="http://www.w3.org/2000/svg" xmlns:xlink="http://www.w3.org/1999/xlink" x="0px" y="0px"
	 viewBox="0 0 87.4 103" enable-background="new 0 0 87.4 103" xml:space="preserve">
<g>
	
		<image overflow="visible" opacity="0.5" width="88" height="102" xlink:href="65F11868.png"  transform="matrix(1 0 0 1 -0.2728 0.6667)">
	</image>
	<g>
		<path fill="#FFFFFF" d="M18.4,19v65H69V19H18.4z M25.6,26.4h36.1v7H25.6V26.4z M40.1,62.3v-7.4h7.4v7.4H40.1z M47.5,69.3v7.4h-7.4
			v-7.4H47.5z M33.1,62.3h-7.4v-7.4h7.4V62.3z M47.5,40.6v7.2h-7.4v-7.2H47.5z M54.5,54.9h7.2v7.4h-7.2V54.9z M54.5,47.9v-7.2h7.2
			v7.2H54.5z M33.1,40.6v7.2h-7.4v-7.2H33.1z M25.6,69.3h7.4v7.4h-7.4V69.3z M54.5,76.8v-7.4h7.2v7.4H54.5z M54.5,76.8"/>
	</g>
</g>
</svg>
