<?xml version="1.0" encoding="utf-8"?>
<!-- Generator: Adobe Illustrator 19.2.1, SVG Export Plug-In . SVG Version: 6.00 Build 0)  -->
<svg version="1.1" id="Layer_1" xmlns="http://www.w3.org/2000/svg" xmlns:xlink="http://www.w3.org/1999/xlink" x="0px" y="0px"
	 viewBox="0 0 20.3 24" enable-background="new 0 0 20.3 24" xml:space="preserve">
<g>
	<path fill="#FFFFFF" d="M15.2,0L3.4,0C2.7,0,2.2,0.4,1.9,1l12.6,0l4.8,5.1l0,15.9c0.6-0.2,1-0.8,1-1.4l0-15.1L15.2,0z"/>
	<path fill="#FFFFFF" d="M14.1,1.8l-12.6,0C0.7,1.8,0,2.5,0,3.3l0,19.1C0,23.3,0.7,24,1.5,24l15.4,0c0.8,0,1.5-0.7,1.5-1.5l0-15.9
		L14.1,1.8z M14.5,4.1l1.9,2.1l-1.9,0L14.5,4.1z M17.2,22.5c0,0.1-0.1,0.2-0.2,0.2l-15.4,0c-0.1,0-0.2-0.1-0.2-0.2l0-19.1
		c0-0.1,0.1-0.2,0.2-0.2l11.7,0l0,3.7c0,0.4,0.3,0.6,0.6,0.6l3.4,0L17.2,22.5z M3.6,9.5l10.9,0c0.3,0,0.5,0.2,0.5,0.5
		c0,0.3-0.2,0.5-0.5,0.5l-10.9,0c-0.3,0-0.5-0.2-0.5-0.5C3.1,9.7,3.3,9.5,3.6,9.5 M15,13.2c0,0.3-0.2,0.5-0.5,0.5l-10.9,0
		c-0.3,0-0.5-0.2-0.5-0.5c0-0.3,0.2-0.5,0.5-0.5l10.9,0C14.8,12.7,15,12.9,15,13.2 M15,16.3c0,0.3-0.2,0.5-0.5,0.5l-10.9,0
		c-0.3,0-0.5-0.2-0.5-0.5c0-0.3,0.2-0.5,0.5-0.5l10.9,0C14.8,15.9,15,16.1,15,16.3 M15,19.5c0,0.3-0.2,0.5-0.5,0.5L3.6,20
		c-0.3,0-0.5-0.2-0.5-0.5c0-0.3,0.2-0.5,0.5-0.5l10.9,0C14.8,19,15,19.3,15,19.5"/>
</g>
</svg>
