<?xml version="1.0" encoding="utf-8"?>
<!-- Generator: Adobe Illustrator 19.2.1, SVG Export Plug-In . SVG Version: 6.00 Build 0)  -->
<svg version="1.1" id="Layer_1" xmlns="http://www.w3.org/2000/svg" xmlns:xlink="http://www.w3.org/1999/xlink" x="0px" y="0px"
	 viewBox="0 0 42.5 42.5" enable-background="new 0 0 42.5 42.5" xml:space="preserve">
<g>
	<path fill="#FFFFFF" d="M35.3,13.9c-0.6,0-1,0.5-1,1v25.6H2V8.3h25c0.6,0,1-0.5,1-1c0-0.6-0.5-1-1-1H1c-0.6,0-1,0.5-1,1v34.2
		c0,0.6,0.5,1,1,1h34.2c0.6,0,1-0.5,1-1V14.9C36.3,14.4,35.8,13.9,35.3,13.9L35.3,13.9z M35.3,13.9"/>
	<path fill="#FFFFFF" d="M42.2,0.3c-0.4-0.4-1-0.4-1.4,0L13.7,27.4L7,20.7c-0.4-0.4-1-0.4-1.4,0c-0.4,0.4-0.4,1,0,1.4l7.4,7.4
		c0.2,0.2,0.5,0.3,0.7,0.3c0.3,0,0.5-0.1,0.7-0.3L42.2,1.7C42.6,1.3,42.6,0.7,42.2,0.3L42.2,0.3z M42.2,0.3"/>
</g>
</svg>
