<?xml version="1.0" encoding="utf-8"?>
<!-- Generator: Adobe Illustrator 19.2.1, SVG Export Plug-In . SVG Version: 6.00 Build 0)  -->
<svg version="1.1" id="Layer_1" xmlns="http://www.w3.org/2000/svg" xmlns:xlink="http://www.w3.org/1999/xlink" x="0px" y="0px"
	 viewBox="0 0 24.1 26" enable-background="new 0 0 24.1 26" xml:space="preserve">
<g>
	<path fill="#FFFFFF" d="M14.8,14.3H3.6c-0.3,0-0.5,0.2-0.5,0.5c0,0.3,0.2,0.5,0.5,0.5h11.2c0.3,0,0.5-0.2,0.5-0.5
		C15.3,14.6,15.1,14.3,14.8,14.3z"/>
	<path fill="#FFFFFF" d="M13.2,21.4H1.6c-0.1,0-0.2-0.1-0.2-0.3V1.6c0-0.1,0.1-0.2,0.2-0.2h11.9v3.8c0,0.4,0.3,0.7,0.7,0.7h3.4v8.8
		c0.2-0.1,0.4-0.1,0.6-0.1c0.3,0,0.5,0,0.7,0.1V4.8L14.4,0H1.6C0.7,0,0,0.7,0,1.6v19.5c0,0.9,0.7,1.6,1.6,1.6h11.9
		C13.2,22.3,13.1,21.9,13.2,21.4z M14.8,2.3l2,2.1h-2V2.3z"/>
	<path fill="#FFFFFF" d="M14.8,7.8H3.6C3.4,7.8,3.1,8,3.1,8.3c0,0.3,0.2,0.5,0.5,0.5h11.2c0.3,0,0.5-0.2,0.5-0.5
		C15.3,8,15.1,7.8,14.8,7.8z"/>
	<path fill="#FFFFFF" d="M13.3,17.6H3.6c-0.3,0-0.5,0.2-0.5,0.5c0,0.3,0.2,0.5,0.5,0.5h9.5C13.1,18.2,13.2,17.9,13.3,17.6z"/>
	<path fill="#FFFFFF" d="M14.8,11.1H3.6c-0.3,0-0.5,0.2-0.5,0.5c0,0.3,0.2,0.5,0.5,0.5h11.2c0.3,0,0.5-0.2,0.5-0.5
		C15.3,11.4,15.1,11.1,14.8,11.1z"/>
	<path fill="#FFFFFF" d="M17.9,13.7c-3.4,0-6.2,2.8-6.2,6.2c0,3.4,2.8,6.2,6.2,6.2c3.4,0,6.2-2.8,6.2-6.2
		C24.1,16.4,21.3,13.7,17.9,13.7 M17.9,24.8c-2.7,0-4.9-2.2-4.9-4.9c0-2.7,2.2-4.9,4.9-4.9c2.7,0,4.9,2.2,4.9,4.9
		C22.9,22.6,20.7,24.8,17.9,24.8"/>
	<path fill="#FFFFFF" d="M21.7,17.9L17,22.6c0,0-0.1,0-0.2,0l-2.7-2.7c0,0,0-0.1,0-0.2l0.7-0.7c0,0,0.1,0,0.2,0l2,2l4-4
		c0,0,0.1,0,0.2,0l0.7,0.7C21.8,17.8,21.8,17.8,21.7,17.9"/>
</g>
</svg>
