<?xml version="1.0" encoding="utf-8"?>
<!-- Generator: Adobe Illustrator 19.2.1, SVG Export Plug-In . SVG Version: 6.00 Build 0)  -->
<svg version="1.1" id="Layer_1" xmlns="http://www.w3.org/2000/svg" xmlns:xlink="http://www.w3.org/1999/xlink" x="0px" y="0px"
	 viewBox="0 0 87.4 103" enable-background="new 0 0 87.4 103" xml:space="preserve">
<g>
	
		<image overflow="visible" opacity="0.5" width="98" height="97" xlink:href="3915CAE7.png"  transform="matrix(1 0 0 1 -5.2728 2.6667)">
	</image>
	<g>
		<path fill="#FFFFFF" d="M37.3,42.2c-3.8-2.2-7.5-4.3-11.3-6.5c2-3.9,4.5-7.9,8.5-11.8c0.5-0.5,1.1-0.9,2-1h0.9l0.6,0
			c2,0.3,3.9,3,4.9,4.4c0.8,1.3,1.5,2.7,2.3,4.1L37.3,42.2z M43.7,26.7c1.8,3.1,3.5,6.3,5,9.8l-6,3.4l17.4,1.7l7.3-15.9l-6.1,3.5
			c-1.6-3.3-3.7-6.1-6.9-7.6c-5.7,0-11.4,0-17.1,0.1C39.6,21.6,41.7,23.7,43.7,26.7L43.7,26.7z M57,49.4L57,49.4l0.1,0.1l4.5,9.5
			c1.8,0.1,3.6,0.1,5.4,0.1c1.9-0.2,5.3-0.6,6.4-2.4c0-0.1,0.1-0.1,0.1-0.2l0.4-0.8c0-0.3,0-0.7-0.1-1.1c-1.5-5.4-3.7-9.5-6.1-13.2
			c-3.7,2.2-7.5,4.5-11.2,6.7L57,49.4z M67,60.2c-3.6,0.1-7.2,0-11-0.4L56,52.8L46,67.2l10.3,14.2l-0.1-7c3.7,0.2,7.2-0.3,10-2.3
			c2.8-5,5.6-10,8.3-15C73.5,59.1,70.6,59.9,67,60.2L67,60.2z M30.6,61.2c-0.8,1.5-1.5,3-2.2,4.6c-0.7,1.8-1.8,5.1-0.6,6.8
			c0,0.1,0.1,0.1,0.1,0.2l0.5,0.8c0.5,0.3,1,0.5,1.5,0.6c5.5,1,10.2,0.8,14.5,0.1c-0.4-4.3-0.8-8.7-1.2-13L30.6,61.2z M27.4,65.3
			c1.5-3.3,3.1-6.5,5.1-9.7l6.3,2.9l-8.6-15.2l-17.2,3.1l6.3,2.9c-1.8,3.3-2.9,6.6-2.2,10c3.3,4.6,6.6,9.3,9.9,14
			C25.6,71.6,26.1,68.7,27.4,65.3L27.4,65.3z M27.4,65.3"/>
	</g>
</g>
</svg>
