<?xml version="1.0" encoding="utf-8"?>
<!-- Generator: Adobe Illustrator 19.2.1, SVG Export Plug-In . SVG Version: 6.00 Build 0)  -->
<svg version="1.1" id="Layer_1" xmlns="http://www.w3.org/2000/svg" xmlns:xlink="http://www.w3.org/1999/xlink" x="0px" y="0px"
	 viewBox="0 0 142.2 37" enable-background="new 0 0 142.2 37" xml:space="preserve">
<g>
	<path fill="#FFFFFF" d="M14.5,12.8h5c0.7,0,1.3,0.1,1.8,0.3c0.5,0.2,1,0.4,1.4,0.8c0.4,0.3,0.7,0.8,0.9,1.3
		c0.2,0.5,0.3,1.1,0.3,1.7c0,0.6-0.1,1.2-0.3,1.7c-0.2,0.5-0.5,0.9-0.9,1.3c-0.4,0.4-0.8,0.6-1.3,0.8c-0.5,0.2-1.1,0.3-1.7,0.3h-1.9
		V25h-3.2V12.8z M19.2,18.4c0.4,0,0.8-0.1,1-0.4c0.3-0.3,0.4-0.6,0.4-1.1c0-0.5-0.1-0.8-0.4-1.1c-0.2-0.3-0.6-0.4-1.1-0.4h-1.5v3
		H19.2z"/>
	<path fill="#FFFFFF" d="M25.5,12.8h5.1c0.7,0,1.3,0.1,1.8,0.3c0.5,0.2,1,0.4,1.4,0.8c0.4,0.3,0.7,0.8,0.9,1.3
		c0.2,0.5,0.3,1.1,0.3,1.7c0,0.8-0.2,1.5-0.5,2.1c-0.4,0.6-0.8,1.1-1.4,1.4l2.6,4.7h-3.5L30,20.8h-1.4V25h-3.2V12.8z M30.2,18.3
		c0.4,0,0.8-0.1,1-0.4c0.3-0.3,0.4-0.6,0.4-1.1c0-0.5-0.1-0.8-0.4-1.1c-0.3-0.3-0.6-0.4-1.1-0.4h-1.6v2.9H30.2z"/>
	<path fill="#FFFFFF" d="M42.3,25.5c3.6,0,6.5-2.9,6.5-6.5c0-0.6-0.1-1.1-0.2-1.6c0-0.1-0.1-0.2-0.2-0.2c-0.1,0-0.2,0-0.3,0.1
		l-5.8,5.8l-4.4-4.4l1.6-1.6l2.6,2.6c0.1,0.1,0.1,0.1,0.2,0.1c0.1,0,0.1,0,0.2-0.1l4.6-4.6c0.1-0.1,0.1-0.3,0-0.4
		c-1.2-1.4-3-2.2-4.9-2.2c-3.6,0-6.5,2.9-6.5,6.5C35.8,22.6,38.7,25.5,42.3,25.5z"/>
	<path fill="#FFFFFF" d="M131.3,11.7c-0.1-0.1-0.3-0.2-0.4-0.3c-0.2-0.1-0.4-0.1-0.6-0.1c-0.2,0-0.4,0-0.6,0.1
		c-0.2,0.1-0.3,0.2-0.5,0.3c-0.1,0.1-0.2,0.3-0.3,0.5c-0.1,0.2-0.1,0.4-0.1,0.6c0,0.2,0,0.4,0.1,0.6c0.1,0.2,0.2,0.3,0.3,0.5
		c0.1,0.1,0.3,0.2,0.5,0.3c0.2,0.1,0.4,0.1,0.6,0.1c0.2,0,0.4,0,0.6-0.1c0.2-0.1,0.3-0.2,0.5-0.3c0.1-0.1,0.2-0.3,0.3-0.5
		c0.1-0.2,0.1-0.4,0.1-0.6c0-0.2,0-0.4-0.1-0.6C131.5,11.9,131.4,11.8,131.3,11.7z M131.3,13.1c-0.1,0.1-0.1,0.3-0.2,0.4
		c-0.1,0.1-0.2,0.2-0.4,0.2c-0.1,0.1-0.3,0.1-0.4,0.1c-0.2,0-0.3,0-0.4-0.1c-0.1-0.1-0.3-0.1-0.4-0.2s-0.2-0.2-0.2-0.4
		c-0.1-0.1-0.1-0.3-0.1-0.5c0-0.2,0-0.3,0.1-0.5c0.1-0.1,0.1-0.3,0.2-0.4c0.1-0.1,0.2-0.2,0.4-0.2c0.1-0.1,0.3-0.1,0.4-0.1
		c0.2,0,0.3,0,0.4,0.1c0.1,0.1,0.3,0.1,0.4,0.2c0.1,0.1,0.2,0.2,0.2,0.4c0.1,0.1,0.1,0.3,0.1,0.5C131.4,12.8,131.4,13,131.3,13.1z
		 M70.1,18.9c0.4-0.6,0.5-1.3,0.5-2.1c0-0.7-0.1-1.2-0.3-1.7c-0.2-0.5-0.5-0.9-0.9-1.3c-0.4-0.3-0.8-0.6-1.4-0.8
		c-0.5-0.2-1.1-0.3-1.8-0.3h-5.1V25h3.2v-4.2h1.4l2.1,4.2h3.5l-2.6-4.7C69.3,19.9,69.7,19.5,70.1,18.9z M67,17.9
		c-0.3,0.3-0.6,0.4-1,0.4h-1.6v-2.9H66c0.5,0,0.8,0.1,1.1,0.4c0.3,0.3,0.4,0.6,0.4,1.1C67.4,17.3,67.3,17.6,67,17.9z M123.8,0H18.5
		C8.3,0,0,8.3,0,18.5S8.3,37,18.5,37h105.3c10.2,0,18.5-8.3,18.5-18.5S134,0,123.8,0z M123.8,32.4H18.5c-7.7,0-13.9-6.2-13.9-13.9
		c0-7.7,6.2-13.9,13.9-13.9h105.3c7.7,0,13.9,6.2,13.9,13.9C137.7,26.1,131.4,32.4,123.8,32.4z M58.9,13.8c-0.4-0.3-0.8-0.6-1.4-0.8
		c-0.5-0.2-1.1-0.3-1.8-0.3h-5V25H54v-4.1h1.9c0.6,0,1.2-0.1,1.7-0.3c0.5-0.2,1-0.5,1.3-0.8c0.4-0.4,0.7-0.8,0.9-1.3
		c0.2-0.5,0.3-1.1,0.3-1.7c0-0.7-0.1-1.2-0.3-1.7C59.6,14.6,59.3,14.1,58.9,13.8z M56.6,18c-0.3,0.3-0.6,0.4-1,0.4H54v-3h1.5
		c0.5,0,0.8,0.1,1.1,0.4c0.2,0.3,0.4,0.7,0.4,1.1C56.9,17.3,56.8,17.7,56.6,18z M117,15.6h3.8V25h3.3v-9.4h3.7v-2.8H117V15.6z
		 M130,12.3c0,0,0.1-0.1,0.2-0.1c0.1,0,0.1,0,0.2,0c0.1,0,0.2,0,0.2,0.1c0.1,0,0.1,0.1,0.2,0.2l0.2-0.2c-0.1-0.1-0.2-0.2-0.3-0.2
		c-0.1-0.1-0.2-0.1-0.4-0.1c-0.1,0-0.2,0-0.3,0.1c-0.1,0-0.2,0.1-0.2,0.2c-0.1,0.1-0.1,0.2-0.2,0.2c0,0.1-0.1,0.2-0.1,0.3
		c0,0.1,0,0.2,0.1,0.3c0,0.1,0.1,0.2,0.2,0.2c0.1,0.1,0.2,0.1,0.2,0.2c0.1,0,0.2,0.1,0.3,0.1c0.1,0,0.3,0,0.4-0.1
		c0.1-0.1,0.2-0.1,0.3-0.2l-0.2-0.2c0,0.1-0.1,0.1-0.2,0.2c-0.1,0-0.1,0.1-0.2,0.1c-0.1,0-0.1,0-0.2,0c-0.1,0-0.1-0.1-0.2-0.1
		c0,0-0.1-0.1-0.1-0.2c0-0.1,0-0.1,0-0.2c0-0.1,0-0.1,0-0.2C129.9,12.4,129.9,12.4,130,12.3z M112.7,21.8c-0.4,0.3-1,0.4-1.7,0.4
		c-0.5,0-0.9-0.1-1.3-0.3c-0.4-0.2-0.7-0.4-1-0.7c-0.3-0.3-0.5-0.7-0.7-1.1c-0.2-0.4-0.2-0.9-0.2-1.4c0-0.5,0.1-0.9,0.2-1.3
		c0.1-0.4,0.4-0.8,0.6-1.1c0.3-0.3,0.6-0.5,1-0.7c0.4-0.2,0.9-0.3,1.4-0.3c0.6,0,1.2,0.1,1.6,0.4c0.5,0.3,0.9,0.7,1.2,1.1l2.1-2.2
		c-0.6-0.9-1.4-1.5-2.3-1.8c-0.9-0.4-1.9-0.5-2.9-0.5c-0.9,0-1.8,0.2-2.6,0.5c-0.8,0.3-1.5,0.8-2,1.4c-0.6,0.6-1,1.3-1.3,2.1
		c-0.3,0.8-0.5,1.6-0.5,2.6c0,0.9,0.2,1.8,0.5,2.6c0.3,0.8,0.7,1.5,1.3,2c0.6,0.6,1.2,1,2,1.3c0.8,0.3,1.6,0.5,2.6,0.5
		c2.2,0,4.1-0.9,5.4-2.6l-2.2-2.1C113.6,21.2,113.2,21.6,112.7,21.8z M84.3,18.9c0-0.9-0.2-1.8-0.5-2.6c-0.3-0.8-0.8-1.5-1.3-2
		c-0.6-0.6-1.2-1-2-1.3c-0.8-0.3-1.6-0.5-2.5-0.5c-0.9,0-1.8,0.2-2.5,0.5c-0.8,0.3-1.4,0.8-2,1.3c-0.6,0.6-1,1.2-1.3,2
		c-0.3,0.8-0.5,1.6-0.5,2.6c0,0.9,0.2,1.8,0.5,2.6c0.3,0.8,0.8,1.5,1.3,2c0.6,0.6,1.2,1,2,1.3c0.8,0.3,1.6,0.5,2.5,0.5
		c0.9,0,1.8-0.2,2.5-0.5c0.8-0.3,1.5-0.8,2-1.3c0.6-0.6,1-1.2,1.3-2C84.2,20.6,84.3,19.8,84.3,18.9z M80.8,20.2
		c-0.1,0.4-0.3,0.8-0.6,1.1c-0.3,0.3-0.6,0.5-0.9,0.7c-0.4,0.2-0.8,0.3-1.3,0.3c-0.5,0-0.9-0.1-1.3-0.3c-0.4-0.2-0.7-0.4-0.9-0.7
		c-0.3-0.3-0.5-0.7-0.6-1.1C75,19.8,75,19.3,75,18.9c0-0.5,0.1-0.9,0.2-1.3c0.1-0.4,0.3-0.8,0.6-1.1c0.3-0.3,0.6-0.5,0.9-0.7
		c0.4-0.2,0.8-0.3,1.3-0.3c0.5,0,0.9,0.1,1.3,0.3c0.4,0.2,0.7,0.4,0.9,0.7c0.3,0.3,0.5,0.7,0.6,1.1c0.1,0.4,0.2,0.9,0.2,1.3
		C81,19.3,80.9,19.8,80.8,20.2z M89.2,20.8c0,0.5-0.1,0.9-0.3,1.2c-0.2,0.3-0.6,0.4-1.2,0.4c-0.4,0-0.8-0.1-1.2-0.3
		s-0.6-0.4-0.9-0.7l-1.9,2c0.5,0.6,1.1,1.1,1.9,1.4c0.8,0.3,1.5,0.5,2.3,0.5c0.6,0,1.2-0.1,1.8-0.3c0.5-0.2,1-0.5,1.4-0.8
		c0.4-0.4,0.7-0.8,0.9-1.3c0.2-0.5,0.3-1.1,0.3-1.8v-8.4h-3.2V20.8z M97.7,20.1h4.6v-2.6h-4.6v-1.9h5.5v-2.8h-8.8V25h9.2v-2.8h-5.9
		V20.1z"/>
</g>
</svg>
