<?xml version="1.0" encoding="utf-8"?>
<!-- Generator: Adobe Illustrator 19.2.1, SVG Export Plug-In . SVG Version: 6.00 Build 0)  -->
<svg version="1.1" id="Layer_1" xmlns="http://www.w3.org/2000/svg" xmlns:xlink="http://www.w3.org/1999/xlink" x="0px" y="0px"
	 viewBox="0 0 20.4 13" enable-background="new 0 0 20.4 13" xml:space="preserve">
<g>
	<g>
		<path fill="#32475A" d="M6.3,7.5h7.9v-2H6.3V7.5z M2.2,6.5c0-2.3,1.8-4,4-4h3V0.6h-3C3,0.6,0.4,3.3,0.4,6.5c0,3.2,2.7,5.9,5.9,5.9
			h3v-1.9h-3C4,10.5,2.2,8.8,2.2,6.5L2.2,6.5z M14.2,0.6h-3v1.9h3c2.3,0,4,1.8,4,4s-1.8,4-4,4h-3v1.9h3c3.2,0,5.9-2.7,5.9-5.9
			C20.1,3.3,17.4,0.6,14.2,0.6L14.2,0.6z M14.2,0.6"/>
	</g>
</g>
</svg>
