<?xml version="1.0" encoding="utf-8"?>
<!-- Generator: Adobe Illustrator 19.2.1, SVG Export Plug-In . SVG Version: 6.00 Build 0)  -->
<svg version="1.1" id="Layer_1" xmlns="http://www.w3.org/2000/svg" xmlns:xlink="http://www.w3.org/1999/xlink" x="0px" y="0px"
	 viewBox="0 0 21.2 24" enable-background="new 0 0 21.2 24" xml:space="preserve">
<g>
	<path fill="#FFFFFF" d="M15.6,0h-13C1.8,0,1.1,0.7,1.1,1.6v19.7c0,0.9,0.7,1.6,1.6,1.6h15.9c0.9,0,1.6-0.7,1.6-1.6V4.9L15.6,0z
		 M16,2.4l2,2.1h-2V2.4z M18.8,21.3c0,0.1-0.1,0.3-0.3,0.3H2.7c-0.1,0-0.3-0.1-0.3-0.3V1.6c0-0.1,0.1-0.3,0.3-0.3h12v3.8
		c0,0.4,0.3,0.7,0.7,0.7h3.5V21.3z"/>
	<path fill="#FFFFFF" d="M20.3,12.3h-7.2L11,9.9c-0.2-0.2-0.4-0.3-0.7-0.3H0.9C0.4,9.6,0,10,0,10.5v12.6C0,23.6,0.4,24,0.9,24h19.4
		c0.5,0,0.9-0.4,0.9-0.9v-9.9C21.2,12.7,20.8,12.3,20.3,12.3"/>
</g>
</svg>
