<?xml version="1.0" encoding="utf-8"?>
<!-- Generator: Adobe Illustrator 19.2.1, SVG Export Plug-In . SVG Version: 6.00 Build 0)  -->
<svg version="1.1" id="Layer_1" xmlns="http://www.w3.org/2000/svg" xmlns:xlink="http://www.w3.org/1999/xlink" x="0px" y="0px"
	 viewBox="0 0 15.8 21" enable-background="new 0 0 15.8 21" xml:space="preserve">
<path fill="#FFFFFF" d="M0.3,5.5C-0.3,7.4,0,9.4,1,11.2c1.3,2.3,3.8,3.7,6.5,3.7c1,0,2-0.2,2.9-0.6l3.9,6.7l1.5-0.9l-3.9-6.7
	c1.3-1,2.3-2.4,2.7-4c0.5-1.9,0.3-3.9-0.7-5.6C12.6,1.4,10.1,0,7.4,0C6.1,0,4.9,0.3,3.7,1C2,2,0.8,3.6,0.3,5.5L0.3,5.5z M7.4,1.8
	c2,0,3.9,1.1,4.9,2.8c0.8,1.3,1,2.8,0.6,4.3c-0.4,1.5-1.3,2.7-2.6,3.4c-0.9,0.5-1.8,0.8-2.8,0.8c-2,0-3.9-1.1-4.9-2.8
	C1.8,9,1.6,7.4,2,6c0.4-1.5,1.3-2.7,2.6-3.4C5.5,2,6.5,1.8,7.4,1.8L7.4,1.8z M7.4,1.8"/>
</svg>
