<?xml version="1.0" encoding="utf-8"?>
<!-- Generator: Adobe Illustrator 19.2.1, SVG Export Plug-In . SVG Version: 6.00 Build 0)  -->
<svg version="1.1" id="Layer_1" xmlns="http://www.w3.org/2000/svg" xmlns:xlink="http://www.w3.org/1999/xlink" x="0px" y="0px"
	 viewBox="0 0 22.9 23" enable-background="new 0 0 22.9 23" xml:space="preserve">
<g>
	<g>
		<path fill-rule="evenodd" clip-rule="evenodd" fill="#FFFFFF" d="M22.5,10.3c0-0.3-0.4-0.5-0.7-0.5c-1,0-1.9-0.6-2.3-1.5
			c-0.4-0.9-0.1-2,0.6-2.7c0.2-0.2,0.3-0.6,0.1-0.8c-0.5-0.7-1.1-1.3-1.8-1.8c-0.3-0.2-0.6-0.2-0.8,0.1c-0.7,0.7-1.8,1-2.8,0.6
			c-1-0.4-1.6-1.4-1.5-2.4c0-0.3-0.2-0.6-0.5-0.6c-0.8-0.1-1.7-0.1-2.5,0c-0.3,0-0.6,0.3-0.5,0.6c0,1-0.6,2-1.5,2.4
			C7.3,3.8,6.1,3.6,5.4,2.9C5.2,2.6,4.9,2.6,4.6,2.8C3.9,3.3,3.3,3.9,2.8,4.6C2.6,4.8,2.6,5.2,2.9,5.4c0.8,0.7,1,1.8,0.6,2.8
			C3.1,9.1,2.2,9.7,1.1,9.7c-0.4,0-0.6,0.2-0.6,0.5c-0.1,0.8-0.1,1.7,0,2.5c0,0.3,0.4,0.5,0.7,0.5c1,0,1.9,0.6,2.3,1.5
			c0.4,0.9,0.1,2-0.6,2.7c-0.2,0.2-0.3,0.6-0.1,0.8c0.5,0.7,1.1,1.3,1.8,1.8c0.3,0.2,0.6,0.2,0.8-0.1c0.7-0.7,1.9-1,2.8-0.6
			c1,0.4,1.6,1.4,1.5,2.4c0,0.3,0.2,0.6,0.5,0.6c0.4,0,0.9,0.1,1.3,0.1c0.4,0,0.8,0,1.2-0.1c0.3,0,0.6-0.3,0.5-0.6
			c0-1,0.6-2,1.5-2.4c0.9-0.4,2.1-0.1,2.7,0.6c0.2,0.2,0.6,0.3,0.8,0.1c0.7-0.5,1.3-1.1,1.8-1.8c0.2-0.3,0.2-0.6-0.1-0.8
			c-0.8-0.7-1-1.8-0.6-2.8c0.4-0.9,1.3-1.5,2.3-1.5l0.1,0c0.3,0,0.6-0.2,0.6-0.5C22.6,12,22.6,11.1,22.5,10.3L22.5,10.3z M11.5,15.2
			c-2,0-3.7-1.7-3.7-3.7c0-2,1.7-3.7,3.7-3.7c2,0,3.7,1.7,3.7,3.7C15.2,13.6,13.5,15.2,11.5,15.2L11.5,15.2z M11.5,15.2"/>
	</g>
</g>
</svg>
