<?xml version="1.0" encoding="utf-8"?>
<!-- Generator: Adobe Illustrator 19.2.1, SVG Export Plug-In . SVG Version: 6.00 Build 0)  -->
<svg version="1.1" id="Layer_1" xmlns="http://www.w3.org/2000/svg" xmlns:xlink="http://www.w3.org/1999/xlink" x="0px" y="0px"
	 viewBox="0 0 22.9 21.2" enable-background="new 0 0 22.9 21.2" xml:space="preserve">
<g>
	<path fill-rule="evenodd" clip-rule="evenodd" fill="#FFFFFF" d="M7.4,0.5h-5c-0.6,0-1,0.4-1,1v3h20.2v-1c0-0.6-0.5-1-1-1H8.4v-1
		C8.4,1,8,0.5,7.4,0.5L7.4,0.5z M7.4,0.5"/>
	<path fill-rule="evenodd" clip-rule="evenodd" fill="#FFFFFF" d="M21.5,5.6H1.4c-0.6,0-1,0.5-1,1v13.1c0,0.6,0.4,1,1,1h20.1
		c0.6,0,1-0.5,1-1V6.6C22.6,6,22.1,5.6,21.5,5.6z M14.8,14.7c-0.4,0-0.8-0.2-1.1-0.4l-3.9,2.3c0.1,0.2,0.1,0.3,0.1,0.4
		c0,0.9-0.7,1.6-1.6,1.6c-0.9,0-1.6-0.7-1.6-1.6c0-0.9,0.7-1.6,1.6-1.6c0.4,0,0.8,0.2,1.1,0.4l3.9-2.3c-0.1-0.1-0.1-0.3-0.1-0.4
		c0-0.1,0-0.3,0.1-0.4l-3.9-2.3c-0.3,0.3-0.7,0.4-1.1,0.4c-0.9,0-1.7-0.7-1.7-1.7c0-0.9,0.7-1.7,1.7-1.7c0.9,0,1.7,0.7,1.7,1.7
		c0,0.1,0,0.3-0.1,0.4l3.9,2.3c0.3-0.3,0.7-0.4,1.1-0.4c0.9,0,1.6,0.7,1.6,1.6C16.4,14,15.7,14.7,14.8,14.7z"/>
</g>
</svg>
