<?xml version="1.0" encoding="utf-8"?>
<!-- Generator: Adobe Illustrator 19.2.1, SVG Export Plug-In . SVG Version: 6.00 Build 0)  -->
<svg version="1.1" id="Layer_1" xmlns="http://www.w3.org/2000/svg" xmlns:xlink="http://www.w3.org/1999/xlink" x="0px" y="0px"
	 viewBox="0 0 22.2 22.2" enable-background="new 0 0 22.2 22.2" xml:space="preserve">
<g>
	<path fill="#FFFFFF" d="M0,11.1c0,3.1,1.2,5.8,3.3,7.8L0,22.2h8.3v-8.3l-3.1,3.1c-1.5-1.4-2.5-3.5-2.5-5.8c0-3.6,2.4-6.7,5.5-7.9
		V0.4C3.6,1.7,0,6,0,11.1L0,11.1z M22.2,0h-8.3v8.3l3.1-3.1c1.5,1.4,2.5,3.5,2.5,5.8c0,3.6-2.4,6.7-5.5,7.9v2.9
		c4.7-1.2,8.3-5.5,8.3-10.7c0-3.1-1.3-5.8-3.3-7.8L22.2,0z M22.2,0"/>
</g>
</svg>
