<?xml version="1.0" encoding="utf-8"?>
<!-- Generator: Adobe Illustrator 19.2.1, SVG Export Plug-In . SVG Version: 6.00 Build 0)  -->
<svg version="1.1" id="Layer_1" xmlns="http://www.w3.org/2000/svg" xmlns:xlink="http://www.w3.org/1999/xlink" x="0px" y="0px"
	 viewBox="0 0 26 26" enable-background="new 0 0 26 26" xml:space="preserve">
<g>
	<path fill="#FFFFFF" d="M12.7,9.3c-2.9,0-5.2,2.4-5.2,5.2c0,3.9,4.1,6.7,8.2,4.4c0.6-0.3,1.1-0.8,1.4-1.4
		C19.5,13.4,16.6,9.3,12.7,9.3z"/>
	<path fill="#FFFFFF" d="M15.9,2.2H9.5c-1.6,0-2,2-2.4,3H0v18h25v-18h-6.7C18,4.2,17.6,2.2,15.9,2.2z M20,8.2h4v2h-4V8.2z
		 M12.7,21.7c-5.3,0-9.2-5.7-6.1-11.2c0.5-0.8,1.2-1.5,2-2c5.6-3.1,11.2,0.8,11.2,6C19.9,18.5,16.7,21.7,12.7,21.7z"/>
</g>
</svg>
